<?xml version="1.0" encoding="iso-8859-1"?>
<!-- Generator: Adobe Illustrator 18.0.0, SVG Export Plug-In . SVG Version: 6.00 Build 0)  -->
<!DOCTYPE svg PUBLIC "-//W3C//DTD SVG 1.1//EN" "http://www.w3.org/Graphics/SVG/1.1/DTD/svg11.dtd">
<svg version="1.1" id="Capa_1" xmlns="http://www.w3.org/2000/svg" xmlns:xlink="http://www.w3.org/1999/xlink" x="0px" y="0px"
	 viewBox="0 0 395 395" style="enable-background:new 0 0 395 395;" xml:space="preserve">
<g>
	<path d="M313.002,0H82C36.785,0,0,36.784,0,81.998v230.993C0,358.211,36.785,395,82,395h231.002
		C358.216,395,395,358.211,395,312.991V81.998C395,36.784,358.216,0,313.002,0z M380,312.991C380,349.94,349.945,380,313.002,380H82
		c-36.944,0-67-30.06-67-67.009V81.998C15,45.056,45.056,15,82,15h231.002C349.945,15,380,45.056,380,81.998V312.991z"/>
	<path d="M335.161,187.036h-16.362c-1.245,0-2.359,0.775-2.79,1.943l-2.048,5.542l-14.598-34.209
		c-3.096-7.245-10.218-11.95-18.1-11.95H186.37c-7.884,0-15.003,4.705-18.1,11.95l-14.599,34.214l-2.05-5.547
		c-0.432-1.168-1.545-1.943-2.79-1.943h-16.359c-1.643,0-2.975,1.332-2.975,2.975v13.687c0,1.643,1.332,2.975,2.975,2.975h15.117
		l-7.635,15.237c-1.373,2.735-2.085,5.761-2.083,8.823l0.01,29.453c0.003,9.255,6.406,16.993,15.02,19.087v12.274
		c0,3.289,2.662,5.953,5.948,5.953h19.037c3.286,0,5.952-2.664,5.952-5.953v-11.696h99.955v11.696c0,3.289,2.662,5.953,5.947,5.953
		h19.043c3.288,0,5.951-2.664,5.951-5.953v-12.275c8.61-2.095,15.012-9.832,15.016-19.086l0.013-29.453
		c0.002-3.063-0.713-6.088-2.087-8.823l-7.632-15.237h15.117c1.643,0,2.975-1.332,2.975-2.975v-13.687
		C338.136,188.368,336.804,187.036,335.161,187.036z M189.198,166.057h89.238l13.965,32.723H175.227L189.198,166.057z
		 M197.286,245.872c0,1.475-1.197,2.671-2.671,2.671h-28.29c-1.479,0-2.668-1.196-2.668-2.671V233.66
		c0-1.476,1.189-2.671,2.668-2.671h28.29c1.474,0,2.671,1.195,2.671,2.671V245.872z M270.347,245.872V233.66
		c0-1.476,1.192-2.671,2.669-2.671h28.291c1.477,0,2.67,1.195,2.67,2.671v12.212c0,1.475-1.193,2.671-2.67,2.671h-28.291
		C271.539,248.543,270.347,247.347,270.347,245.872z"/>
	<path d="M87.889,153.584c15.489,0,28.051-12.547,28.051-28.037c0-15.49-12.562-28.047-28.051-28.047
		c-15.485,0-28.05,12.557-28.05,28.047C59.839,141.037,72.403,153.584,87.889,153.584z"/>
	<path d="M119.053,200.814c-0.055,0-5.589-0.19-16.933-16.545c-4.277-6.167-7.821-12.426-9.828-16.151
		c-2.618-7.301-8.752-13.176-16.861-15.1c-12.749-3.027-25.541,4.855-28.567,17.607l-7.223,30.433
		c-2.275,9.587,1.618,19.195,9.109,24.659v58.507c0,7.72,6.258,13.978,13.978,13.978s13.979-6.259,13.979-13.978v-58.536
		c4.41-3.215,7.75-7.944,9.109-13.671l3.554-14.974c10.565,14.501,20.295,21.567,29.683,21.567c4.915,0,8.898-3.984,8.898-8.898
		C127.951,204.798,123.967,200.814,119.053,200.814z"/>
</g>
<g>
</g>
<g>
</g>
<g>
</g>
<g>
</g>
<g>
</g>
<g>
</g>
<g>
</g>
<g>
</g>
<g>
</g>
<g>
</g>
<g>
</g>
<g>
</g>
<g>
</g>
<g>
</g>
<g>
</g>
</svg>
